<svg xmlns="http://www.w3.org/2000/svg" width="408" height="26.365" viewBox="0 0 408 26.365">
  <g id="marca_lojistas" transform="translate(100 -5907)">
    <g id="Grupo_23603" data-name="Grupo 23603" transform="translate(-100 5907)">
      <path id="Caminho_7413" data-name="Caminho 7413" d="M82.511,0V26.328h7.021v-9.9h13.726V10.637H89.532V5.793h13.726V0Z" transform="translate(-28.126 0)" fill="#271718"/>
      <path id="Caminho_7412" data-name="Caminho 7412" d="M120.639,0V26.328h7.02v-9.9h13.726V10.637H127.659V5.793h13.726V0Z" transform="translate(-41.123 0)" fill="#271718"/>
      <path id="Caminho_7411" data-name="Caminho 7411" d="M158.767,0V26.328h21.975V20.535h-15.13V15.973h15.13V10.357h-15.13V5.793h15.13V0Z" transform="translate(-54.12 0)" fill="#271718"/>
      <rect id="Retângulo_4362" data-name="Retângulo 4362" width="7.021" height="26.327" transform="translate(131.007)" fill="#271718"/>
      <path id="Caminho_7410" data-name="Caminho 7410" d="M240.852,0h-6.98l.153,5.424.124,5.355.22,8.759L228.759,5.425a11.966,11.966,0,0,0-2.47-3.938A5.479,5.479,0,0,0,222.162,0l0,0h-6.1V26.328h6.1V6.05c.013,0,.022,0,.035,0a.462.462,0,0,1,.38.173,1.644,1.644,0,0,1,.243.448l7.5,19.66h10.531v-7.8l-.025.039Z" transform="translate(-73.65 0)" fill="#271718"/>
      <path id="Caminho_7405" data-name="Caminho 7405" d="M420.459,0l-.069,0a5.451,5.451,0,0,0-4.06,1.486,11.973,11.973,0,0,0-2.47,3.938l-2.949,7.167-2.949-7.167a11.963,11.963,0,0,0-2.47-3.938A5.451,5.451,0,0,0,401.431,0l-.068,0h-6.1V26.329h6.1V6.051c.012,0,.021,0,.034,0a.463.463,0,0,1,.38.173,1.669,1.669,0,0,1,.243.449l4.867,12.614a2.487,2.487,0,0,0,2.321,1.592h3.406a2.486,2.486,0,0,0,2.321-1.592L419.8,6.669a1.669,1.669,0,0,1,.242-.449.455.455,0,0,1,.346-.169V26.329h6.1V0Z" transform="translate(-134.736 -0.001)" fill="#271718"/>
      <path id="Caminho_7407" data-name="Caminho 7407" d="M377.15,9.925V6.265A6.264,6.264,0,0,0,370.886,0H351.771V26.328h6.2V5.407h12.1a1.643,1.643,0,0,1,1.644,1.643V9.14a1.643,1.643,0,0,1-1.644,1.644h-7.476a2.676,2.676,0,0,0-2.081,4.356l9.041,11.188h7.494l-8.17-10.138h2.012a6.265,6.265,0,0,0,6.264-6.265" transform="translate(-119.91 0)" fill="#271718"/>
      <path id="Caminho_7408" data-name="Caminho 7408" d="M320.609,0H331.57V26.328h-6.563V20.816H314.125l-2.23,5.513h-6.519L314.3,4.244A6.815,6.815,0,0,1,320.609,0m-4.29,15.375h8.689V5.969H322.5a3.941,3.941,0,0,0-1.646.41A3.453,3.453,0,0,0,319.4,7.732Z" transform="translate(-104.095 0)" fill="#271718"/>
      <path id="Caminho_7406" data-name="Caminho 7406" d="M458.224,17.753,445.964,0h7.979l6.905,9.145c.265.406.689.419.856.005L465.4,0H472.8L462.157,26.329h-7.393Z" transform="translate(-152.018 -0.001)" fill="#271718"/>
      <path id="Caminho_7414" data-name="Caminho 7414" d="M51.35,0H62.311V26.328H55.748V20.816H44.866l-2.23,5.513H36.117L45.038,4.244A6.815,6.815,0,0,1,51.35,0M47.06,15.376h8.689V5.969H53.24a3.941,3.941,0,0,0-1.646.41,3.453,3.453,0,0,0-1.451,1.353Z" transform="translate(-12.311 0)" fill="#271718"/>
      <path id="Caminho_7415" data-name="Caminho 7415" d="M3.194,23.348A10.708,10.708,0,0,0,7.16,25.595a17.546,17.546,0,0,0,5.512.79h6.72l2.34-5.792H13.2q-3.368,0-4.6-1.281a5.994,5.994,0,0,1-1.229-4.23V11.361a6.113,6.113,0,0,1,1.194-4.23Q9.759,5.85,13.023,5.849H27.689L30.03.057H12.672A17.544,17.544,0,0,0,7.16.848,10.727,10.727,0,0,0,3.194,3.094,9.33,9.33,0,0,0,.807,6.64,12.79,12.79,0,0,0,0,11.291v3.86A12.793,12.793,0,0,0,.807,19.8a9.322,9.322,0,0,0,2.387,3.545" transform="translate(0 -0.019)" fill="#271718"/>
      <path id="Caminho_7409" data-name="Caminho 7409" d="M279.164,20.536H267.171V15.972h13.836l2.269-5.616H267.171V5.793h17.949L287.461,0H260.326V26.327h16.5Z" transform="translate(-88.739 -0.001)" fill="#271718"/>
    </g>
    <path id="Caminho_7404" data-name="Caminho 7404" d="M565.16,26.365l-70.783-.082L505.039,0,572.9.082a3.606,3.606,0,0,1,3.356,4.955L568.517,24.11a3.619,3.619,0,0,1-3.356,2.255" transform="translate(-268.521 5907)" fill="#fb637e"/>
    <g id="Grupo_23602" data-name="Grupo 23602" transform="translate(239.954 5909.098)">
      <path id="Caminho_7396" data-name="Caminho 7396" d="M515.766,21.875l3.767-17.769h1.778l-3.767,17.769Z" transform="translate(-515.766 -3.498)" fill="#fff"/>
      <path id="Caminho_7397" data-name="Caminho 7397" d="M531.839,13.193l-1.24,5.9c-.665,3.2-1.7,4.506-4.224,4.506-2.317,0-3.6-1.421-2.915-4.653l1.308-6.219c.514-2.422,1.5-4.237,4.121-4.237,2.568,0,3.568,1.732,2.951,4.7m-5.265-.464-1.386,6.5c-.418,2.01.242,2.846,1.374,2.846,1.082,0,1.717-.631,2.172-2.736l1.368-6.377c.389-1.8.034-2.94-1.391-2.94-1.253,0-1.774,1.043-2.136,2.708" transform="translate(-518.326 -4.993)" fill="#fff"/>
      <path id="Caminho_7398" data-name="Caminho 7398" d="M540.354,8.844,537.2,23.684c-.435,2.078-.831,3.681-3.039,3.681a5.964,5.964,0,0,1-1.278-.128l.354-1.623a6.876,6.876,0,0,0,.773.067c.74,0,1.009-.206,1.333-1.693l3.23-15.144Z" transform="translate(-521.602 -5.113)" fill="#fff"/>
      <path id="Caminho_7399" data-name="Caminho 7399" d="M546.88,8.844h1.778L545.545,23.49h-1.778Z" transform="translate(-525.311 -5.113)" fill="#fff"/>
      <path id="Caminho_7400" data-name="Caminho 7400" d="M552.77,19.108l-.107.542c-.277,1.475.013,2.464,1.367,2.464.936,0,1.475-.518,1.78-1.883a3.654,3.654,0,0,0-1.3-3.967c-1.711-1.643-2.285-2.622-1.9-4.733.385-2.09,1.577-3.041,3.333-3.041,2.522,0,3.187,1.853,2.8,3.828l-.115.578h-1.688l.116-.693c.22-1.332.02-2.225-1.2-2.225-.755,0-1.323.527-1.532,1.78-.19,1.178-.012,1.81,1.255,3.03,2.008,1.951,2.492,3.122,1.993,5.553-.5,2.358-1.8,3.259-3.663,3.259-2.851,0-3.454-1.9-2.939-4.224l.058-.269Z" transform="translate(-527.708 -4.993)" fill="#fff"/>
      <path id="Caminho_7401" data-name="Caminho 7401" d="M564.932,6.914H566.6l.837-3.731h1.749l-.819,3.731h2.044l-.335,1.558h-2.043l-2.225,10.236c-.219,1.066-.068,1.558.836,1.558a5.433,5.433,0,0,0,1.063-.115l-.314,1.428a5.356,5.356,0,0,1-1.5.175c-1.394,0-2.392-.587-1.926-2.751l2.275-10.53H564.6Z" transform="translate(-532.16 -3.183)" fill="#fff"/>
      <path id="Caminho_7402" data-name="Caminho 7402" d="M578.661,20.469c-.167.824-.48,2.392-.556,2.9h-1.729c.048-.39.123-.908.21-1.333a2.658,2.658,0,0,1-2.62,1.564c-2.118,0-2.565-2.039-2.093-4.294.668-3.143,2.316-4.113,5.709-4.67.184-.029.376-.058.578-.087l.487-2.3c.333-1.494-.013-2.281-1.168-2.281-1.2,0-1.477.927-1.839,2.366l-.078.3h-1.75l.04-.185c.4-1.923.97-3.961,3.821-3.961,2.346,0,3.225,1.394,2.761,3.58Zm-.795-4.433-.545.086c-2.087.393-3.19,1.022-3.678,3.179-.333,1.53-.121,2.7,1.114,2.7,1.357,0,2.134-1.363,2.706-4.118Z" transform="translate(-534.834 -4.993)" fill="#fff"/>
      <path id="Caminho_7403" data-name="Caminho 7403" d="M587.3,19.108l-.107.542c-.277,1.475.013,2.464,1.367,2.464.936,0,1.475-.518,1.78-1.883a3.654,3.654,0,0,0-1.3-3.967c-1.711-1.643-2.285-2.622-1.9-4.733.385-2.09,1.577-3.041,3.333-3.041,2.522,0,3.187,1.853,2.8,3.828l-.115.578h-1.688l.116-.693c.22-1.332.02-2.225-1.2-2.225-.755,0-1.323.527-1.532,1.78-.19,1.178-.013,1.81,1.255,3.03,2.008,1.951,2.492,3.122,1.993,5.553-.5,2.358-1.8,3.259-3.664,3.259-2.851,0-3.454-1.9-2.939-4.224l.058-.269Z" transform="translate(-539.478 -4.993)" fill="#fff"/>
    </g>
  </g>
</svg>
